<svg width="50" height="50" viewBox="0 0 50 50" fill="none" xmlns="http://www.w3.org/2000/svg">
<path d="M14.5833 14.5833H10.4167C9.3116 14.5833 8.25179 15.0223 7.47039 15.8037C6.68899 16.5851 6.25 17.6449 6.25 18.75V35.4167H10.4167V27.0833H14.5833V35.4167H18.75V18.75C18.75 17.6449 18.311 16.5851 17.5296 15.8037C16.7482 15.0223 15.6884 14.5833 14.5833 14.5833ZM14.5833 22.9167H10.4167V18.75H14.5833M29.1667 14.5833H20.8333V35.4167H25V27.0833H29.1667C30.2717 27.0833 31.3315 26.6444 32.1129 25.863C32.8943 25.0816 33.3333 24.0217 33.3333 22.9167V18.75C33.3333 17.6449 32.8943 16.5851 32.1129 15.8037C31.3315 15.0223 30.2717 14.5833 29.1667 14.5833ZM29.1667 22.9167H25V18.75H29.1667M41.6667 18.75V31.25H43.75V35.4167H35.4167V31.25H37.5V18.75H35.4167V14.5833H43.75V18.75H41.6667Z" fill="url(#paint0_linear_603_228)"/>
<defs>
<linearGradient id="paint0_linear_603_228" x1="6.54561" y1="26.5484" x2="45.6528" y2="26.596" gradientUnits="userSpaceOnUse">
<stop stop-color="#4AB6E4"/>
<stop offset="1" stop-color="#1141BD"/>
</linearGradient>
</defs>
</svg>
