<svg width="46" height="46" viewBox="0 0 46 46" fill="none" xmlns="http://www.w3.org/2000/svg">
<path d="M31.6099 0.000254791C32.0081 -0.011919 32.3696 0.414163 32.1337 0.846332L22.8083 17.8287C22.7611 17.9153 22.7374 18.0126 22.7394 18.111C22.7413 18.2095 22.769 18.3057 22.8196 18.3903C22.8703 18.475 22.9421 18.5451 23.0282 18.5939C23.1143 18.6427 23.2116 18.6685 23.3107 18.6687H39.425C39.9458 18.6687 40.197 19.2987 39.8171 19.6518L11.5712 45.8406C11.0657 46.3093 10.3151 45.6489 10.7195 45.0919L24.0889 26.7673C24.1501 26.6825 24.1867 26.5825 24.1946 26.4784C24.2025 26.3743 24.1814 26.27 24.1337 26.177C24.0859 26.084 24.0133 26.0058 23.9238 25.951C23.8343 25.8963 23.7314 25.867 23.6263 25.8665H6.5715C6.45802 25.8662 6.34719 25.8325 6.25305 25.7695C6.1589 25.7066 6.0857 25.6173 6.04271 25.513C5.99972 25.4087 5.98888 25.294 6.01157 25.1835C6.03427 25.0731 6.08947 24.9718 6.17017 24.8926L31.23 0.170687C31.3304 0.0665055 31.4647 0.00535995 31.6099 0.000254791Z" fill="url(#paint0_linear_110_58)"/>
<defs>
<linearGradient id="paint0_linear_110_58" x1="6.26802" y1="26.419" x2="41.7253" y2="26.4366" gradientUnits="userSpaceOnUse">
<stop stop-color="#4AB6E4"/>
<stop offset="1" stop-color="#1141BD"/>
</linearGradient>
</defs>
</svg>
