<svg width="32" height="32" viewBox="0 0 32 32" fill="none" xmlns="http://www.w3.org/2000/svg">
<path d="M16.0001 17.8662L9.46673 24.3996C9.22229 24.644 8.91118 24.7662 8.5334 24.7662C8.15562 24.7662 7.84451 24.644 7.60006 24.3996C7.35562 24.1551 7.2334 23.844 7.2334 23.4662C7.2334 23.0885 7.35562 22.7774 7.60006 22.5329L14.1334 15.9996L7.60006 9.46624C7.35562 9.2218 7.2334 8.91069 7.2334 8.53291C7.2334 8.15513 7.35562 7.84402 7.60006 7.59958C7.84451 7.35513 8.15562 7.23291 8.5334 7.23291C8.91118 7.23291 9.22229 7.35513 9.46673 7.59958L16.0001 14.1329L22.5334 7.59958C22.7778 7.35513 23.089 7.23291 23.4667 7.23291C23.8445 7.23291 24.1556 7.35513 24.4001 7.59958C24.6445 7.84402 24.7667 8.15513 24.7667 8.53291C24.7667 8.91069 24.6445 9.2218 24.4001 9.46624L17.8667 15.9996L24.4001 22.5329C24.6445 22.7774 24.7667 23.0885 24.7667 23.4662C24.7667 23.844 24.6445 24.1551 24.4001 24.3996C24.1556 24.644 23.8445 24.7662 23.4667 24.7662C23.089 24.7662 22.7778 24.644 22.5334 24.3996L16.0001 17.8662Z" fill="url(#paint0_linear_200_28)"/>
<defs>
<linearGradient id="paint0_linear_200_28" x1="7.37161" y1="17.3027" x2="25.6564" y2="17.3151" gradientUnits="userSpaceOnUse">
<stop stop-color="#4AB6E4"/>
<stop offset="1" stop-color="#1141BD"/>
</linearGradient>
</defs>
</svg>
