<svg width="21" height="23" viewBox="0 0 21 23" fill="none" xmlns="http://www.w3.org/2000/svg">
<path d="M7.80919 18.4679C4.11537 19.7814 4.11537 16.1222 2.65503 15.653M12.9633 20.3444V17.0604C12.9633 16.1222 13.0492 15.7469 12.5338 15.1839C14.9391 14.9024 17.2585 13.8703 17.2585 9.55423C17.2574 8.43295 16.8569 7.35614 16.1417 6.55174C16.4772 5.57778 16.4463 4.49844 16.0558 3.54926C16.0558 3.54926 15.1109 3.26777 13.0493 4.76902C11.3031 4.27228 9.46948 4.27228 7.72328 4.76902C5.66162 3.26777 4.71669 3.54926 4.71669 3.54926C4.32625 4.49844 4.29537 5.57778 4.63079 6.55174C3.91561 7.35614 3.5151 8.43295 3.51406 9.55423C3.51406 13.8703 5.83343 14.9024 8.2387 15.1839C7.72329 15.7469 7.72329 16.3098 7.80919 17.0604V20.3444" stroke="url(#paint0_linear_147_705)" stroke-width="1.50862" stroke-linecap="round" stroke-linejoin="round"/>
<defs>
<linearGradient id="paint0_linear_147_705" x1="2.77015" y1="13.1862" x2="17.9995" y2="13.1951" gradientUnits="userSpaceOnUse">
<stop stop-color="#4AB6E4"/>
<stop offset="1" stop-color="#1141BD"/>
</linearGradient>
</defs>
</svg>
