<svg width="50" height="50" viewBox="0 0 50 50" fill="none" xmlns="http://www.w3.org/2000/svg">
<path d="M25.0003 9.08803L23.9443 8.94403L10.6003 31.9601C11.1763 32.4641 11.5603 33.1121 11.7283 33.8321H38.2724C38.4404 33.1121 38.8244 32.4641 39.4004 31.9601L26.0563 8.94403L25.0003 9.08803ZM12.0403 35.8721L22.3123 41.9441C23.0083 41.2961 23.9683 40.9121 25.0003 40.9121C26.0323 40.9121 26.9924 41.2961 27.6884 41.9441L37.9604 35.8721H12.0403ZM25.0003 49.0002C23.931 49.0002 22.9054 48.5754 22.1493 47.8192C21.3931 47.0631 20.9683 46.0375 20.9683 44.9682L21.1843 43.6241L10.8643 37.5041C10.1203 38.3681 9.04029 38.8961 7.81629 38.8961C6.74693 38.8961 5.72137 38.4713 4.96522 37.7152C4.20907 36.959 3.78428 35.9335 3.78428 34.8641C3.78428 32.9681 5.05628 31.3841 6.80829 30.9281V18.6641C4.81628 18.4001 3.28027 16.6961 3.28027 14.632C3.28027 13.5627 3.70507 12.5371 4.46122 11.781C5.21737 11.0248 6.24293 10.6 7.31229 10.6C8.63229 10.6 9.78429 11.224 10.5283 12.184L21.1123 6.11202L20.9683 5.03201C20.9683 2.80001 22.7683 1 25.0003 1C27.2324 1 29.0324 2.80001 29.0324 5.03201L28.8884 6.11202L39.4724 12.184C40.2164 11.224 41.3684 10.6 42.6884 10.6C43.7578 10.6 44.7833 11.0248 45.5395 11.781C46.2956 12.5371 46.7204 13.5627 46.7204 14.632C46.7204 16.6961 45.1844 18.4001 43.1924 18.6641V30.9281C44.9444 31.3841 46.2164 32.9681 46.2164 34.8641C46.2164 35.9335 45.7916 36.959 45.0355 37.7152C44.2793 38.4713 43.2538 38.8961 42.1844 38.8961C40.9604 38.8961 39.8804 38.3681 39.1364 37.5041L28.8164 43.6241L29.0324 44.9682C29.0324 46.0375 28.6076 47.0631 27.8514 47.8192C27.0953 48.5754 26.0697 49.0002 25.0003 49.0002ZM22.1203 7.86402L11.3203 14.056L11.3683 14.632C11.3683 16.3361 10.3123 17.8001 8.82429 18.4001L8.89629 31.0001L22.1203 7.86402ZM27.8804 7.86402L41.1044 31.0001L41.1764 18.4001C39.6884 17.8001 38.6324 16.3361 38.6324 14.632L38.6804 14.056L27.8804 7.86402Z" fill="url(#paint0_linear_110_22)"/>
<defs>
<linearGradient id="paint0_linear_110_22" x1="3.62271" y1="28.5677" x2="48.9247" y2="28.5954" gradientUnits="userSpaceOnUse">
<stop stop-color="#4AB6E4"/>
<stop offset="1" stop-color="#1141BD"/>
</linearGradient>
</defs>
</svg>
