<svg width="520" height="442" viewBox="0 0 520 442" fill="none" xmlns="http://www.w3.org/2000/svg">
<g filter="url(#filter0_d_173_61)">
<rect width="212.65" height="256.469" rx="39.9654" transform="matrix(0.968127 0.250459 -0.613188 0.789937 246.187 177.526)" fill="url(#paint0_linear_173_61)"/>
</g>
<g filter="url(#filter1_d_173_61)">
<path d="M269.157 254.304L277.749 256.19L271.819 262.688L263.227 260.802L248.401 277.048C246.829 278.772 244.415 280.226 241.692 281.091C238.968 281.956 236.158 282.161 233.879 281.661C236.158 282.161 237.718 283.325 238.218 284.898C238.717 286.47 238.114 288.322 236.541 290.045L221.716 306.291L230.309 308.177L224.379 314.675L215.786 312.789C211.99 310.903 209.862 307.979 213.124 304.405L224.984 291.409C226.556 289.685 227.159 287.834 226.66 286.261C226.161 284.689 224.6 283.525 222.321 283.024L218.024 282.082L223.954 275.583L228.251 276.526C230.53 277.026 233.34 276.821 236.064 275.956C238.787 275.091 241.201 273.637 242.774 271.913L254.634 258.917C256.206 257.193 258.62 255.739 261.344 254.874C264.067 254.009 266.878 253.804 269.157 254.304ZM329.307 267.504C331.586 268.004 333.147 269.169 333.646 270.741C334.145 272.313 333.542 274.165 331.97 275.888L320.11 288.885C318.537 290.608 317.934 292.46 318.433 294.032C318.933 295.605 320.494 296.769 322.773 297.269L327.069 298.212L321.139 304.71L316.843 303.767C314.564 303.267 311.753 303.472 309.03 304.337C306.306 305.202 303.892 306.657 302.32 308.38L290.46 321.377C288.887 323.1 286.473 324.554 283.75 325.419C281.026 326.284 278.216 326.489 275.937 325.989L267.344 324.104L273.274 317.605L281.867 319.491L296.692 303.245C298.264 301.522 300.678 300.067 303.402 299.202C306.125 298.337 308.936 298.132 311.215 298.632C308.936 298.132 307.375 296.968 306.875 295.396C306.376 293.823 306.979 291.972 308.552 290.248L323.377 274.002L314.784 272.117L320.714 265.618L329.307 267.504ZM263.652 299.894C264.791 300.144 265.572 300.726 265.821 301.513C266.071 302.299 265.769 303.225 264.983 304.086C264.197 304.948 262.99 305.675 261.628 306.108C260.266 306.54 258.861 306.643 257.722 306.393C256.582 306.143 255.802 305.56 255.552 304.774C255.302 303.988 255.604 303.062 256.39 302.201C257.176 301.339 258.383 300.612 259.745 300.179C261.107 299.747 262.512 299.644 263.652 299.894ZM246.466 296.123C247.605 296.373 248.386 296.955 248.635 297.741C248.885 298.527 248.584 299.453 247.797 300.315C247.011 301.177 245.804 301.904 244.442 302.336C243.08 302.769 241.675 302.871 240.536 302.621C239.396 302.371 238.616 301.789 238.366 301.003C238.116 300.217 238.418 299.291 239.204 298.429C239.991 297.567 241.198 296.84 242.559 296.408C243.921 295.975 245.326 295.873 246.466 296.123ZM280.837 303.666C281.977 303.916 282.757 304.498 283.007 305.284C283.257 306.07 282.955 306.996 282.169 307.858C281.382 308.719 280.176 309.447 278.814 309.879C277.452 310.312 276.047 310.414 274.907 310.164C273.768 309.914 272.987 309.332 272.738 308.546C272.488 307.76 272.79 306.834 273.576 305.972C274.362 305.11 275.569 304.383 276.931 303.951C278.293 303.518 279.698 303.416 280.837 303.666Z" fill="white" fill-opacity="0.33"/>
</g>
<rect width="212.65" height="256.469" rx="39.9654" transform="matrix(0.968127 0.250459 -0.613188 0.789937 157.263 45.6398)" fill="url(#paint1_linear_173_61)"/>
<g clip-path="url(#clip0_173_61)">
<g filter="url(#filter2_d_173_61)">
<path d="M157.766 148.227L129.083 180.537L113.693 177.38C112.672 177.17 111.969 176.66 111.736 175.961C111.503 175.262 111.761 174.432 112.453 173.653L138.528 144.28L157.766 148.227ZM215.48 160.065L189.404 189.438C188.713 190.217 187.644 190.881 186.434 191.284C185.223 191.687 183.97 191.795 182.949 191.586L136.778 182.115L165.461 149.805L215.48 160.065ZM229.885 138.715C230.905 138.925 231.609 139.435 231.842 140.134C232.074 140.832 231.816 141.663 231.125 142.442L220.695 154.191L143.743 138.406L154.173 126.657C154.865 125.878 155.933 125.214 157.144 124.811C158.355 124.408 159.608 124.299 160.628 124.509L229.885 138.715Z" fill="white" fill-opacity="0.33" shape-rendering="crispEdges"/>
</g>
</g>
<path d="M291.016 32.2488C304.55 14.8131 332.845 5.16014 354.214 10.6883L482.703 43.9291C504.071 49.4573 510.423 68.0732 496.888 85.509L388.637 224.963C375.103 242.398 346.808 252.051 325.439 246.523L196.95 213.282C175.581 207.754 169.23 189.138 182.765 171.703L291.016 32.2488Z" fill="url(#paint2_linear_173_61)"/>
<g filter="url(#filter3_d_173_61)">
<path d="M357.005 156.291C358.984 156.513 363.231 156.099 364.386 152.668C365.541 149.238 368.842 123.475 370.348 111.023C370.683 109.003 369.554 105.797 362.349 109.129C355.144 112.46 327.245 125.817 314.195 132.08L316.167 118.564C316.677 116.185 315.609 112.432 307.257 116.455C298.905 120.477 282.857 128.054 275.877 131.34C273.619 132.595 270.308 135.484 275.125 136.995C279.943 138.506 331.719 150.489 357.005 156.291Z" fill="white" fill-opacity="0.33"/>
<circle r="11.8615" transform="matrix(0.973092 0.230417 -0.686148 0.727462 336.549 96.1674)" fill="white" fill-opacity="0.33"/>
</g>
<defs>
<filter id="filter0_d_173_61" x="95.3254" y="180.982" width="350.332" height="260.931" filterUnits="userSpaceOnUse" color-interpolation-filters="sRGB">
<feFlood flood-opacity="0" result="BackgroundImageFix"/>
<feColorMatrix in="SourceAlpha" type="matrix" values="0 0 0 0 0 0 0 0 0 0 0 0 0 0 0 0 0 0 127 0" result="hardAlpha"/>
<feOffset dy="5.99481"/>
<feGaussianBlur stdDeviation="5.49524"/>
<feComposite in2="hardAlpha" operator="out"/>
<feColorMatrix type="matrix" values="0 0 0 0 0.104167 0 0 0 0 0.104167 0 0 0 0 0.104167 0 0 0 0.61 0"/>
<feBlend mode="normal" in2="BackgroundImageFix" result="effect1_dropShadow_173_61"/>
<feBlend mode="normal" in="SourceGraphic" in2="effect1_dropShadow_173_61" result="shape"/>
</filter>
<filter id="filter1_d_173_61" x="184.252" y="246.376" width="176.588" height="104.079" filterUnits="userSpaceOnUse" color-interpolation-filters="sRGB">
<feFlood flood-opacity="0" result="BackgroundImageFix"/>
<feColorMatrix in="SourceAlpha" type="matrix" values="0 0 0 0 0 0 0 0 0 0 0 0 0 0 0 0 0 0 127 0" result="hardAlpha"/>
<feOffset dy="8.26901"/>
<feGaussianBlur stdDeviation="4.1345"/>
<feComposite in2="hardAlpha" operator="out"/>
<feColorMatrix type="matrix" values="0 0 0 0 1 0 0 0 0 1 0 0 0 0 1 0 0 0 0.1 0"/>
<feBlend mode="normal" in2="BackgroundImageFix" result="effect1_dropShadow_173_61"/>
<feBlend mode="normal" in="SourceGraphic" in2="effect1_dropShadow_173_61" result="shape"/>
</filter>
<filter id="filter2_d_173_61" x="80.9821" y="124.404" width="181.613" height="128.626" filterUnits="userSpaceOnUse" color-interpolation-filters="sRGB">
<feFlood flood-opacity="0" result="BackgroundImageFix"/>
<feColorMatrix in="SourceAlpha" type="matrix" values="0 0 0 0 0 0 0 0 0 0 0 0 0 0 0 0 0 0 127 0" result="hardAlpha"/>
<feOffset dy="30.6702"/>
<feGaussianBlur stdDeviation="15.3351"/>
<feComposite in2="hardAlpha" operator="out"/>
<feColorMatrix type="matrix" values="0 0 0 0 1 0 0 0 0 1 0 0 0 0 1 0 0 0 0.1 0"/>
<feBlend mode="normal" in2="BackgroundImageFix" result="effect1_dropShadow_173_61"/>
<feBlend mode="normal" in="SourceGraphic" in2="effect1_dropShadow_173_61" result="shape"/>
</filter>
<filter id="filter3_d_173_61" x="267.074" y="82.0853" width="133.508" height="85.4077" filterUnits="userSpaceOnUse" color-interpolation-filters="sRGB">
<feFlood flood-opacity="0" result="BackgroundImageFix"/>
<feColorMatrix in="SourceAlpha" type="matrix" values="0 0 0 0 0 0 0 0 0 0 0 0 0 0 0 0 0 0 127 0" result="hardAlpha"/>
<feOffset dy="5.57641"/>
<feGaussianBlur stdDeviation="2.7882"/>
<feComposite in2="hardAlpha" operator="out"/>
<feColorMatrix type="matrix" values="0 0 0 0 1 0 0 0 0 1 0 0 0 0 1 0 0 0 0.1 0"/>
<feBlend mode="normal" in2="BackgroundImageFix" result="effect1_dropShadow_173_61"/>
<feBlend mode="normal" in="SourceGraphic" in2="effect1_dropShadow_173_61" result="shape"/>
</filter>
<linearGradient id="paint0_linear_173_61" x1="79.6166" y1="23.7419" x2="79.6166" y2="280.21" gradientUnits="userSpaceOnUse">
<stop stop-color="#4AA6F7"/>
<stop offset="1" stop-color="#0159DD" stop-opacity="0.98"/>
</linearGradient>
<linearGradient id="paint1_linear_173_61" x1="79.6166" y1="23.7419" x2="79.6166" y2="280.21" gradientUnits="userSpaceOnUse">
<stop stop-color="#4AA6F7"/>
<stop offset="1" stop-color="#0159DD" stop-opacity="0.98"/>
</linearGradient>
<linearGradient id="paint2_linear_173_61" x1="378.043" y1="39.374" x2="319.053" y2="267.392" gradientUnits="userSpaceOnUse">
<stop stop-color="#4AA6F7"/>
<stop offset="1" stop-color="#0159DD" stop-opacity="0.98"/>
</linearGradient>
<clipPath id="clip0_173_61">
<rect width="94.2645" height="94.2645" fill="white" transform="matrix(0.979602 0.200946 -0.663882 0.747837 156.909 113.329)"/>
</clipPath>
</defs>
</svg>
