<svg width="23" height="23" viewBox="0 0 23 23" fill="none" xmlns="http://www.w3.org/2000/svg">
<path d="M5.48327 20.234C4.97621 20.234 4.54198 20.0536 4.18058 19.6928C3.8198 19.3314 3.6394 18.8972 3.6394 18.3901V5.48303C3.6394 4.97597 3.8198 4.54173 4.18058 4.18034C4.54198 3.81955 4.97621 3.63916 5.48327 3.63916H11.0149C11.2761 3.63916 11.4952 3.72736 11.6722 3.90376C11.8486 4.08077 11.9368 4.29988 11.9368 4.56109C11.9368 4.82231 11.8486 5.04112 11.6722 5.21751C11.4952 5.39452 11.2761 5.48303 11.0149 5.48303H5.48327V18.3901H18.3904V12.8585C18.3904 12.5973 18.4789 12.3782 18.6559 12.2012C18.8323 12.0248 19.0511 11.9366 19.3123 11.9366C19.5735 11.9366 19.7923 12.0248 19.9687 12.2012C20.1457 12.3782 20.2342 12.5973 20.2342 12.8585V18.3901C20.2342 18.8972 20.0538 19.3314 19.6931 19.6928C19.3317 20.0536 18.8974 20.234 18.3904 20.234H5.48327ZM9.17101 14.7024C9.00199 14.5334 8.91748 14.3182 8.91748 14.057C8.91748 13.7958 9.00199 13.5807 9.17101 13.4117L17.0997 5.48303H14.7026C14.4414 5.48303 14.2226 5.39452 14.0462 5.21751C13.8692 5.04112 13.7807 4.82231 13.7807 4.56109C13.7807 4.29988 13.8692 4.08077 14.0462 3.90376C14.2226 3.72736 14.4414 3.63916 14.7026 3.63916H19.3123C19.5735 3.63916 19.7923 3.72736 19.9687 3.90376C20.1457 4.08077 20.2342 4.29988 20.2342 4.56109V9.17077C20.2342 9.43198 20.1457 9.65079 19.9687 9.82719C19.7923 10.0042 19.5735 10.0927 19.3123 10.0927C19.0511 10.0927 18.8323 10.0042 18.6559 9.82719C18.4789 9.65079 18.3904 9.43198 18.3904 9.17077V6.77374L10.4387 14.7254C10.2697 14.8944 10.0622 14.979 9.81637 14.979C9.57052 14.979 9.3554 14.8868 9.17101 14.7024Z" fill="url(#paint0_linear_147_707)"/>
<defs>
<linearGradient id="paint0_linear_147_707" x1="3.77022" y1="13.17" x2="21.0763" y2="13.1817" gradientUnits="userSpaceOnUse">
<stop stop-color="#4AB6E4"/>
<stop offset="1" stop-color="#1141BD"/>
</linearGradient>
</defs>
</svg>
