<svg width="97" height="53" viewBox="0 0 97 53" fill="none" xmlns="http://www.w3.org/2000/svg">
<path d="M25.0007 40.5646L35.986 0.212891H50.2341L32.433 53H23.2242L25.0007 40.5646ZM15.0306 0.212891L26.0159 40.5646L27.8649 53H18.5474L0.85498 0.212891H15.0306ZM54.1134 0.212891H74.8875C78.948 0.212891 82.4768 0.817139 85.4739 2.02563C88.4709 3.23413 90.7792 5.02271 92.3986 7.39136C94.0421 9.76001 94.8639 12.6846 94.8639 16.165C94.8639 19.1863 94.3926 21.712 93.45 23.7423C92.5073 25.7726 91.1901 27.4524 89.4982 28.7817C87.8304 30.0869 85.8848 31.1625 83.6611 32.0084L79.4918 34.365H62.0532L61.9807 24.5399H74.8875C76.5068 24.5399 77.8483 24.2499 78.9117 23.6698C79.9752 23.0897 80.7728 22.2679 81.3046 21.2045C81.8605 20.1168 82.1384 18.8237 82.1384 17.3252C82.1384 15.8025 81.8605 14.4973 81.3046 13.4097C80.7487 12.322 79.9269 11.4882 78.8392 10.9081C77.7758 10.328 76.4585 10.038 74.8875 10.038H66.8389V53H54.1134V0.212891ZM83.0085 53L71.3345 29.6519L84.8213 29.5793L96.6404 52.4562V53H83.0085Z" fill="url(#paint0_linear_202_26)"/>
<defs>
<linearGradient id="paint0_linear_202_26" x1="1.77252" y1="33.9663" x2="103.973" y2="34.044" gradientUnits="userSpaceOnUse">
<stop stop-color="#4AB6E4"/>
<stop offset="1" stop-color="#1141BD"/>
</linearGradient>
</defs>
</svg>
