<svg width="45" height="45" viewBox="0 0 45 45" fill="none" xmlns="http://www.w3.org/2000/svg">
<g clip-path="url(#clip0_110_12)">
<path d="M13.5 13.5L14.715 12.621C14.5291 12.3643 14.2668 12.173 13.9655 12.0747C13.6642 11.9763 13.3395 11.976 13.038 12.0736C12.7365 12.1712 12.4736 12.3618 12.2871 12.6181C12.1007 12.8743 12.0001 13.1831 12 13.5H13.5ZM22.5 42C17.3283 42 12.3684 39.9455 8.71142 36.2886C5.05446 32.6316 3 27.6717 3 22.5H0C0 28.4674 2.37053 34.1903 6.5901 38.4099C10.8097 42.6295 16.5326 45 22.5 45V42ZM42 22.5C42 25.0608 41.4956 27.5965 40.5156 29.9623C39.5357 32.3282 38.0993 34.4778 36.2886 36.2886C34.4778 38.0993 32.3282 39.5357 29.9623 40.5156C27.5965 41.4956 25.0608 42 22.5 42V45C28.4674 45 34.1903 42.6295 38.4099 38.4099C42.6295 34.1903 45 28.4674 45 22.5H42ZM22.5 3C25.0608 3 27.5965 3.50438 29.9623 4.48435C32.3282 5.46432 34.4778 6.90068 36.2886 8.71142C38.0993 10.5222 39.5357 12.6718 40.5156 15.0377C41.4956 17.4035 42 19.9392 42 22.5H45C45 16.5326 42.6295 10.8097 38.4099 6.5901C34.1903 2.37053 28.4674 0 22.5 0V3ZM22.5 0C16.5326 0 10.8097 2.37053 6.5901 6.5901C2.37053 10.8097 0 16.5326 0 22.5H3C3 17.3283 5.05446 12.3684 8.71142 8.71142C12.3684 5.05446 17.3283 3 22.5 3V0ZM15 36V13.5H12V36H15ZM12.285 14.379L31.785 41.379L34.215 39.621L14.715 12.621L12.285 14.379ZM30 12V30H33V12H30Z" fill="url(#paint0_linear_110_12)"/>
</g>
<defs>
<linearGradient id="paint0_linear_110_12" x1="0.35473" y1="25.8446" x2="47.2835" y2="25.8763" gradientUnits="userSpaceOnUse">
<stop stop-color="#4AB6E4"/>
<stop offset="1" stop-color="#1141BD"/>
</linearGradient>
<clipPath id="clip0_110_12">
<rect width="45" height="45" fill="white"/>
</clipPath>
</defs>
</svg>
