<svg width="50" height="50" viewBox="0 0 50 50" fill="none" xmlns="http://www.w3.org/2000/svg">
<path d="M26.0418 47.9167C25.1737 47.9167 24.4355 47.6215 23.8272 47.0312C23.2188 46.441 22.9154 45.7118 22.9168 44.8437C22.9168 44.4271 22.9952 44.0278 23.1522 43.6458C23.3091 43.2639 23.5431 42.934 23.8543 42.6562L26.0418 40.625L28.2293 42.6562C28.5418 42.934 28.7765 43.2639 28.9334 43.6458C29.0904 44.0278 29.1681 44.4271 29.1668 44.8437C29.1668 45.7118 28.8633 46.441 28.2563 47.0312C27.6494 47.6215 26.9112 47.9167 26.0418 47.9167ZM18.8543 44.7917L16.6667 42.6042L22.8126 36.4583L25.0001 38.6458L18.8543 44.7917ZM32.2918 41.6667L29.1668 38.5417L32.2918 35.4167L35.4168 38.5417L32.2918 41.6667ZM13.5417 41.6667L10.4168 38.5417L13.5417 35.4167L16.6667 38.5417L13.5417 41.6667ZM15.6251 33.3333C12.4654 33.3333 9.76536 32.2132 7.52508 29.9729C5.2848 27.7326 4.16536 25.0333 4.16675 21.875C4.16675 18.993 5.12161 16.4757 7.03133 14.3229C8.94106 12.1701 11.3022 10.9028 14.1147 10.5208C15.2258 8.54166 16.7452 6.98749 18.673 5.85833C20.6008 4.72916 22.7098 4.16527 25.0001 4.16666C28.1251 4.16666 30.8424 5.16527 33.1522 7.16249C35.4619 9.15971 36.8591 11.6507 37.3438 14.6354C39.7397 14.8437 41.7536 15.8333 43.3855 17.6042C45.0174 19.375 45.8334 21.493 45.8334 23.9583C45.8334 26.5625 44.9223 28.7764 43.1001 30.6C41.2779 32.4236 39.064 33.3347 36.4584 33.3333H15.6251ZM15.6251 29.1667H36.4584C37.9168 29.1667 39.1494 28.6632 40.1563 27.6562C41.1633 26.6493 41.6668 25.4167 41.6668 23.9583C41.6668 22.5 41.1633 21.2674 40.1563 20.2604C39.1494 19.2535 37.9168 18.75 36.4584 18.75H33.3334V16.6667C33.3334 14.375 32.5174 12.4132 30.8855 10.7812C29.2536 9.1493 27.2918 8.33333 25.0001 8.33333C23.3334 8.33333 21.814 8.78471 20.4418 9.68749C19.0695 10.5903 18.0369 11.8055 17.3438 13.3333L16.823 14.5833H15.5209C13.5417 14.6528 11.8494 15.391 10.4438 16.7979C9.03828 18.2049 8.33481 19.8972 8.33342 21.875C8.33342 23.8889 9.04522 25.6076 10.4688 27.0312C11.8924 28.4549 13.6112 29.1667 15.6251 29.1667Z" fill="url(#paint0_linear_603_230)"/>
<defs>
<linearGradient id="paint0_linear_603_230" x1="4.4952" y1="29.2934" x2="47.9477" y2="29.3213" gradientUnits="userSpaceOnUse">
<stop stop-color="#4AB6E4"/>
<stop offset="1" stop-color="#1141BD"/>
</linearGradient>
</defs>
</svg>
