<svg width="44" height="44" viewBox="0 0 44 44" fill="none" xmlns="http://www.w3.org/2000/svg">
<g clip-path="url(#clip0_451_112)">
<path d="M29.8835 0C34.773 0 36.5458 0.509667 38.3352 1.46667C40.1056 2.40579 41.5525 3.85587 42.4877 5.62833C43.4447 7.4195 43.9543 9.19783 43.9543 14.102V15.9317C43.9543 16.2965 43.8113 16.643 43.5547 16.9015L40.3097 20.1538C40.2713 20.1929 40.2222 20.2196 40.1686 20.2305C40.1149 20.2415 40.0593 20.2362 40.0087 20.2153C39.9581 20.1945 39.9148 20.159 39.8845 20.1134C39.8542 20.0678 39.8382 20.0142 39.8385 19.9595V14.7015C39.8385 11.0238 39.4572 9.691 38.7385 8.34533C38.0371 7.01671 36.9525 5.92957 35.6255 5.225C34.2853 4.50633 32.9543 4.125 29.284 4.125H25.3167C24.9518 4.125 24.6017 3.97833 24.345 3.71983L21.1 0.471167C21.0612 0.433027 21.0346 0.384226 21.0235 0.330941C21.0124 0.277656 21.0174 0.222284 21.0378 0.171835C21.0582 0.121386 21.0931 0.0781285 21.1382 0.0475397C21.1832 0.016951 21.2363 0.000406172 21.2907 0L29.8835 0ZM15.941 0C16.3077 0 16.6597 0.146667 16.9163 0.403333L20.1595 3.6575C20.1849 3.68239 20.205 3.71206 20.2189 3.74478C20.2327 3.7775 20.24 3.81264 20.2402 3.84817C20.2402 4.00033 20.1155 4.12317 19.9652 4.12317H14.7182C11.0478 4.12317 9.71684 4.50817 8.37484 5.225C7.04794 5.92967 5.96338 7.01678 5.26184 8.34533C4.54684 9.691 4.16367 11.0238 4.16367 14.7015V18.6798C4.16367 19.0428 4.02067 19.3948 3.764 19.6515L0.519009 22.9038C0.480648 22.9429 0.431511 22.9696 0.377884 22.9805C0.324257 22.9915 0.268578 22.9862 0.217976 22.9653C0.167377 22.9445 0.124157 22.909 0.0938492 22.8634C0.0635376 22.8178 0.0475159 22.7642 0.0478363 22.7095V14.102C0.0478363 9.19783 0.557507 7.4195 1.51451 5.6265C2.44974 3.85559 3.89592 2.40686 5.66517 1.4685C7.45267 0.509667 9.22551 0 14.1168 0H15.941ZM31.605 6.875C32.3264 6.87548 33.0406 7.0181 33.7068 7.29472C34.3731 7.57133 34.9783 7.97652 35.4878 8.48712C35.9974 8.99772 36.4014 9.60372 36.6767 10.2705C36.952 10.9373 37.0931 11.6518 37.0922 12.3732V22.8067C37.0919 23.1703 36.9475 23.519 36.6907 23.7765L33.4457 27.0325C33.4075 27.0712 33.3586 27.0976 33.3053 27.1083C33.252 27.1191 33.1967 27.1136 33.1465 27.0928C33.0963 27.0719 33.0534 27.0365 33.0235 26.9912C32.9935 26.9458 32.9777 26.8925 32.9782 26.8382V13.7482C32.978 13.4162 32.9178 13.087 32.8003 12.7765C32.6683 12.4098 32.4557 12.0707 32.1623 11.7773L27.931 7.33883C27.894 7.29967 27.8693 7.2505 27.86 7.19744C27.8507 7.14438 27.8572 7.08975 27.8787 7.04034C27.9002 6.99094 27.9357 6.94893 27.9809 6.91954C28.026 6.89014 28.0788 6.87466 28.1327 6.875H31.605ZM22.8013 6.875C23.168 6.875 23.5163 7.02167 23.773 7.27833L27.0235 10.5307C27.0611 10.5695 27.0864 10.6184 27.0965 10.6714C27.1066 10.7244 27.101 10.7792 27.0804 10.8291C27.0597 10.879 27.0249 10.9217 26.9803 10.9521C26.9357 10.9825 26.8831 10.9991 26.8292 11H13.7685C13.4275 11 13.1012 11.0623 12.8005 11.1778C12.4338 11.3098 12.0928 11.5225 11.7995 11.814L7.37568 16.0545C7.3369 16.0925 7.28775 16.1182 7.2344 16.1283C7.18106 16.1384 7.12592 16.1325 7.07592 16.1113C7.02592 16.0902 6.98332 16.0547 6.95346 16.0093C6.92361 15.964 6.90785 15.9108 6.90817 15.8565V12.3732C6.90697 11.6516 7.04798 10.9369 7.32315 10.2699C7.59832 9.60295 8.00226 8.99673 8.51186 8.48593C9.02146 7.97514 9.62674 7.56979 10.2931 7.29306C10.9594 7.01633 11.6738 6.87365 12.3953 6.87317L22.8013 6.875ZM10.7508 16.8905C10.8238 16.8905 10.8937 16.9195 10.9453 16.971C10.9969 17.0226 11.0258 17.0926 11.0258 17.1655V30.2537C11.0248 30.5854 11.0838 30.9146 11.2 31.2253C11.3367 31.6017 11.5545 31.9435 11.838 32.2263L16.0693 36.663C16.1073 36.7018 16.133 36.7509 16.1431 36.8043C16.1533 36.8576 16.1474 36.9128 16.1262 36.9628C16.105 37.0127 16.0695 37.0554 16.0242 37.0852C15.9788 37.1151 15.9256 37.1308 15.8713 37.1305H12.3953C11.6736 37.1295 10.9592 36.9864 10.2928 36.7093C9.62644 36.4321 9.02119 36.0265 8.51164 35.5154C8.00209 35.0043 7.59821 34.3978 7.32308 33.7306C7.04795 33.0634 6.90697 32.3485 6.90817 31.6268V21.1952C6.90841 20.831 7.05275 20.4816 7.30967 20.2235L10.5547 16.9712C10.5804 16.9454 10.611 16.925 10.6447 16.9112C10.6783 16.8973 10.7144 16.8903 10.7508 16.8905ZM43.6775 21.0155C43.7504 21.0155 43.8204 21.0445 43.872 21.096C43.9235 21.1476 43.9525 21.2176 43.9525 21.2905V29.898C43.9525 34.8003 43.4428 36.5805 42.4858 38.3735C41.5512 40.1437 40.1056 41.5919 38.337 42.5297C36.5477 43.4867 34.7748 44 29.8817 44H28.0593C27.6927 44 27.3443 43.8533 27.0877 43.5967L23.8408 40.3425C23.8022 40.3043 23.7758 40.2554 23.765 40.2021C23.7543 40.1488 23.7597 40.0935 23.7806 40.0433C23.8014 39.9931 23.8368 39.9503 23.8822 39.9203C23.9275 39.8903 23.9808 39.8745 24.0352 39.875H29.284C32.9543 39.875 34.2853 39.4937 35.6273 38.775C36.9543 38.0704 38.0389 36.9833 38.7403 35.6547C39.4553 34.309 39.8385 32.9762 39.8385 29.2985V25.3165C39.8396 24.9532 39.9846 24.6051 40.2418 24.3485L43.4832 21.0962C43.5347 21.0446 43.6046 21.0156 43.6775 21.0155ZM3.88867 23.7655C3.96161 23.7655 4.03156 23.7945 4.08313 23.846C4.1347 23.8976 4.16367 23.9676 4.16367 24.0405V29.2985C4.16367 32.9762 4.54501 34.309 5.26367 35.6547C5.96512 36.9833 7.0497 38.0704 8.37667 38.775C9.71684 39.4937 11.0478 39.875 14.7182 39.875H18.6855C18.8666 39.8746 19.0461 39.91 19.2135 39.9792C19.3809 40.0484 19.5329 40.1501 19.6608 40.2783L22.904 43.5288C22.9552 43.5812 22.9836 43.6518 22.9828 43.725C22.9828 43.8772 22.8637 44 22.7115 44H14.1168C9.22184 44 7.45084 43.4867 5.6615 42.5297C3.89292 41.5919 2.44734 40.1437 1.51267 38.3735C0.555672 36.5805 0.0460052 34.8022 0.0460052 29.898V28.0683C0.0466118 27.7044 0.191681 27.3556 0.449341 27.0985L3.6925 23.8462C3.74403 23.7946 3.81576 23.7656 3.88867 23.7655ZM36.8153 27.8685C36.8516 27.8683 36.8876 27.8752 36.9211 27.8889C36.9547 27.9026 36.9853 27.9228 37.011 27.9484C37.0367 27.974 37.0571 28.0044 37.0711 28.0378C37.085 28.0713 37.0922 28.1072 37.0922 28.1435V31.6232C37.0931 32.3447 36.952 33.0594 36.6767 33.7264C36.4015 34.3934 35.9976 34.9996 35.4881 35.5105C34.9785 36.0214 34.3734 36.4269 33.7071 36.7039C33.0409 36.981 32.3266 37.124 31.605 37.125H21.199C20.8323 37.125 20.484 36.9783 20.2273 36.7217L16.9768 33.4675C16.9514 33.4427 16.9312 33.413 16.9173 33.3803C16.9035 33.3475 16.8963 33.3124 16.8962 33.2768C16.8962 33.2039 16.9251 33.1339 16.9767 33.0824C17.0283 33.0308 17.0982 33.0018 17.1712 33.0018H30.2318C30.564 33.0019 30.8933 32.941 31.2035 32.8222C31.5797 32.686 31.9215 32.4688 32.2045 32.186L36.6283 27.9455C36.6788 27.8961 36.7447 27.8684 36.8153 27.8685Z" fill="url(#paint0_linear_451_112)"/>
</g>
<defs>
<linearGradient id="paint0_linear_451_112" x1="43.6082" y1="25.2703" x2="-2.18206" y2="25.3011" gradientUnits="userSpaceOnUse">
<stop stop-color="#4AB6E4"/>
<stop offset="1" stop-color="#1141BD"/>
</linearGradient>
<clipPath id="clip0_451_112">
<rect width="44" height="44" fill="white" transform="matrix(-1 0 0 1 44 0)"/>
</clipPath>
</defs>
</svg>
