<svg width="50" height="50" viewBox="0 0 50 50" fill="none" xmlns="http://www.w3.org/2000/svg">
<path d="M29.1667 11.4583C29.1667 12.8397 29.7154 14.1644 30.6922 15.1412C31.6689 16.1179 32.9937 16.6667 34.375 16.6667C35.7563 16.6667 37.0811 16.1179 38.0578 15.1412C39.0346 14.1644 39.5833 12.8397 39.5833 11.4583C39.5833 10.077 39.0346 8.75224 38.0578 7.77549C37.0811 6.79873 35.7563 6.25 34.375 6.25C32.9937 6.25 31.6689 6.79873 30.6922 7.77549C29.7154 8.75224 29.1667 10.077 29.1667 11.4583ZM12.5 6.25H22.9167V16.6667H12.5V6.25ZM22.9167 22.9167V43.75C20.1955 43.7465 17.5837 42.6783 15.64 40.7738C13.6963 38.8694 12.575 36.28 12.5159 33.5594C12.4568 30.8389 13.4647 28.2032 15.3239 26.2163C17.1832 24.2293 19.7461 23.0487 22.4646 22.9271L22.9167 22.9167Z" stroke="url(#paint0_linear_604_232)" stroke-width="4.16667" stroke-linecap="round" stroke-linejoin="round"/>
<defs>
<linearGradient id="paint0_linear_604_232" x1="12.7135" y1="27.7872" x2="40.9576" y2="27.801" gradientUnits="userSpaceOnUse">
<stop stop-color="#4AB6E4"/>
<stop offset="1" stop-color="#1141BD"/>
</linearGradient>
</defs>
</svg>
