<svg width="50" height="50" viewBox="0 0 50 50" fill="none" xmlns="http://www.w3.org/2000/svg">
<path d="M40.1035 17.6485C39.6042 17.478 39.1012 17.3191 38.5947 17.172C38.6787 16.8302 38.7562 16.4864 38.8271 16.1407C39.9697 10.5841 39.2227 6.10753 36.6728 4.6339C34.2314 3.21984 30.2275 4.69347 26.1885 8.21691C25.7913 8.56457 25.4023 8.92264 25.0215 9.29113C24.7676 9.04634 24.5072 8.80675 24.2402 8.57238C20.0068 4.8048 15.7637 3.21789 13.2168 4.6964C10.7754 6.11339 10.0498 10.3214 11.0781 15.588C11.181 16.1088 11.2965 16.6274 11.4248 17.1437C10.8412 17.3091 10.2625 17.4915 9.68945 17.6905C4.73242 19.4239 1.5625 22.1417 1.5625 24.9601C1.5625 27.8722 4.96484 30.7921 10.1338 32.5626C10.5531 32.7052 10.9762 32.8377 11.4033 32.9601C11.2646 33.5128 11.1419 34.0717 11.0352 34.6368C10.0586 39.8126 10.8203 43.921 13.2568 45.3292C15.7734 46.7833 19.9951 45.2892 24.1103 41.6857C24.4359 41.4005 24.7614 41.0994 25.0869 40.7823C25.4984 41.1801 25.9215 41.5662 26.3564 41.9405C30.3408 45.3761 34.2754 46.7638 36.708 45.3517C39.2227 43.8927 40.04 39.4786 38.9785 34.1085C38.8971 33.6984 38.8034 33.2797 38.6973 32.8527C38.9941 32.7648 39.2848 32.6739 39.5693 32.5802C44.9404 30.796 48.4394 27.9112 48.4394 24.963C48.4375 22.131 45.166 19.3956 40.1035 17.6485ZM27.5059 9.73058C30.9658 6.71203 34.2002 5.52062 35.6748 6.37218C37.2441 7.27941 37.8545 10.9376 36.8682 15.7355C36.8031 16.048 36.7327 16.3595 36.6572 16.67C34.5924 16.2004 32.4986 15.8689 30.3896 15.6778C29.1822 13.9385 27.8585 12.2827 26.4277 10.7218C26.778 10.3819 27.1367 10.0515 27.5039 9.73058H27.5059ZM15.4033 27.3683C15.8271 28.1886 16.2702 28.9988 16.7324 29.7989C17.2031 30.6153 17.6937 31.4197 18.2041 32.212C16.753 32.0543 15.311 31.8219 13.8838 31.5157C14.2979 30.1759 14.8076 28.7843 15.4033 27.3683ZM15.4033 22.6485C14.8174 21.2628 14.3213 19.8995 13.9141 18.5831C15.252 18.2833 16.6777 18.0382 18.1641 17.8527C17.666 18.63 17.1868 19.4187 16.7266 20.2189C16.2663 21.019 15.8242 21.8289 15.4004 22.6485H15.4033ZM16.4678 25.0089C17.085 23.7218 17.7497 22.4594 18.4619 21.2218C19.1735 19.9848 19.931 18.7762 20.7344 17.5958C22.1289 17.4903 23.5586 17.4347 25.0029 17.4347C26.4473 17.4347 27.8857 17.4903 29.2793 17.5968C30.0742 18.7745 30.8271 19.979 31.5381 21.2101C32.249 22.4412 32.9225 23.6977 33.5586 24.9796C32.931 26.2713 32.2591 27.5388 31.543 28.7823C30.8327 30.0193 30.084 31.2316 29.2969 32.4191C27.9053 32.5167 26.4648 32.5704 25 32.5704C23.5352 32.5704 22.1221 32.5245 20.7559 32.4357C19.9466 31.2514 19.1829 30.0375 18.4648 28.7941C17.7467 27.5506 17.0801 26.2888 16.4648 25.0089H16.4678ZM33.2764 29.7853C33.7484 28.9663 34.2015 28.1365 34.6357 27.296C35.231 28.6457 35.7564 30.0251 36.21 31.4288C34.766 31.754 33.306 32.0033 31.8359 32.1759C32.332 31.3888 32.8122 30.5919 33.2764 29.7853ZM34.6162 22.6495C34.1839 21.826 33.7344 21.0122 33.2676 20.2081C32.8118 19.4151 32.3369 18.6319 31.8428 17.8585C33.3379 18.048 34.7725 18.2999 36.1172 18.6075C35.6848 19.9791 35.1839 21.3282 34.6162 22.6495ZM25.0225 12.1564C25.9976 13.2219 26.9184 14.3359 27.7812 15.4943C25.9355 15.4064 24.0885 15.4064 22.2402 15.4943C23.1514 14.2892 24.084 13.171 25.0225 12.1564ZM14.2246 6.43175C15.793 5.5216 19.2607 6.82238 22.916 10.0714C23.1494 10.2794 23.3848 10.4972 23.6191 10.7228C22.181 12.2834 20.848 13.9378 19.6289 15.6749C17.5247 15.8645 15.435 16.1907 13.373 16.6515C13.2539 16.1723 13.1465 15.6899 13.0508 15.2042C12.167 10.6896 12.752 7.28625 14.2246 6.43175ZM11.9385 31.0265C11.5479 30.9152 11.1621 30.7944 10.7812 30.6642C8.49609 29.8829 6.6084 28.8634 5.3125 27.753C4.15234 26.7579 3.56445 25.7648 3.56445 24.9601C3.56445 23.2501 6.10937 21.0685 10.3535 19.589C10.8867 19.4034 11.4245 19.2338 11.9668 19.0802C12.5971 21.1059 13.3605 23.0877 14.252 25.0128C13.3499 26.9645 12.577 28.9734 11.9385 31.0265ZM22.791 40.1739C20.9717 41.7677 19.1494 42.8976 17.543 43.4669C16.0996 43.9777 14.9502 43.9923 14.2559 43.5909C12.7773 42.7364 12.1621 39.4366 13.001 35.0109C13.1006 34.49 13.2145 33.9692 13.3428 33.4484C15.4253 33.897 17.536 34.2033 19.6602 34.3653C20.8912 36.1115 22.2352 37.7752 23.6836 39.3458C23.3926 39.632 23.0947 39.9073 22.791 40.1739ZM25.0781 37.9064C24.1289 36.88 23.1816 35.7443 22.2578 34.5236C23.1556 34.5587 24.0697 34.5763 25 34.5763C25.9551 34.5763 26.9004 34.5558 27.832 34.5138C26.9723 35.6907 26.0531 36.823 25.0781 37.9064ZM37.2383 40.6984C36.959 42.2062 36.3975 43.212 35.7031 43.6144C34.2256 44.4718 31.0664 43.3575 27.6602 40.4191C27.2695 40.0831 26.8789 39.7228 26.4814 39.3448C27.9016 37.7682 29.2142 36.0977 30.4102 34.3448C32.5461 34.1639 34.667 33.8359 36.7578 33.3634C36.8535 33.7501 36.9381 34.129 37.0117 34.5001C37.4814 36.8732 37.5488 39.0196 37.2383 40.6984ZM38.9375 30.6749C38.6816 30.7599 38.418 30.8419 38.1504 30.922C37.4948 28.8868 36.7016 26.8985 35.7764 24.9708C36.6669 23.0689 37.429 21.1094 38.0576 19.1056C38.5371 19.2452 39.0029 19.3917 39.4512 19.547C43.7891 21.0431 46.4355 23.2579 46.4355 24.9601C46.4355 26.7765 43.5771 29.1339 38.9375 30.6749Z" fill="url(#paint0_linear_147_514)"/>
<path d="M25 29.155C25.8311 29.1577 26.6443 28.9137 27.3367 28.454C28.029 27.9942 28.5694 27.3393 28.8893 26.5723C29.2092 25.8052 29.2944 24.9604 29.1339 24.145C28.9734 23.3295 28.5745 22.58 27.9878 21.9914C27.4011 21.4027 26.6529 21.0014 25.8379 20.8383C25.023 20.6751 24.178 20.7575 23.4099 21.0749C22.6418 21.3924 21.9851 21.9306 21.5231 22.6214C21.0611 23.3123 20.8145 24.1247 20.8145 24.9558C20.8133 25.5064 20.9207 26.0519 21.1304 26.561C21.3402 27.0701 21.6483 27.5328 22.037 27.9228C22.4257 28.3128 22.8875 28.6224 23.3959 28.8338C23.9043 29.0452 24.4494 29.1544 25 29.155Z" fill="url(#paint1_linear_147_514)"/>
<defs>
<linearGradient id="paint0_linear_147_514" x1="1.93203" y1="28.1066" x2="50.8181" y2="28.1436" gradientUnits="userSpaceOnUse">
<stop stop-color="#4AB6E4"/>
<stop offset="1" stop-color="#1141BD"/>
</linearGradient>
<linearGradient id="paint1_linear_147_514" x1="20.8807" y1="25.58" x2="29.6391" y2="25.5859" gradientUnits="userSpaceOnUse">
<stop stop-color="#4AB6E4"/>
<stop offset="1" stop-color="#1141BD"/>
</linearGradient>
</defs>
</svg>
