<svg width="50" height="50" viewBox="0 0 50 50" fill="none" xmlns="http://www.w3.org/2000/svg">
<g clip-path="url(#clip0_110_20)">
<path d="M49.9784 32.038C49.8349 30.874 49.245 29.8642 48.2206 29.0331C48.2079 29.0176 48.1938 29.0033 48.1786 28.9902L48.1269 28.9531L48.1103 28.9413L47.5663 28.5507L47.5478 28.537L47.4784 28.4882C47.453 28.4734 47.4257 28.4619 47.3974 28.454C45.6767 27.4296 42.828 26.7119 38.4696 28.2499C37.4296 26.4999 37.3114 25.0976 38.0077 22.9492C38.1317 22.5751 38.0165 22.3281 37.6454 22.1679C36.8993 21.8505 35.8778 22.0126 35.1532 22.204C34.8153 22.2919 34.6122 22.4833 34.5478 22.7734C34.0888 24.9218 32.7548 26.8847 31.4648 28.7792L31.3886 28.8906C30.5937 27.205 30.7587 25.8994 31.3124 24.2636C31.4228 23.9374 31.3358 23.7206 31.0302 23.5585C30.1767 23.1181 28.8964 23.4208 28.3866 23.5712C27.7401 23.7597 27.0468 25.5068 26.2724 27.5986C26.0771 28.1249 25.9091 28.5751 25.8085 28.7851C25.5692 29.2734 25.3407 29.83 25.0985 30.4208C24.5517 31.7578 23.9355 33.2626 23.0546 34.2079C22.7343 33.4999 23.2382 32.3837 23.7274 31.3007C24.3065 30.0204 24.8534 28.8105 24.2235 28.038C24.1239 27.9159 24.0004 27.8155 23.8605 27.7429C23.7206 27.6704 23.5673 27.6272 23.4101 27.6161C23.205 27.6005 22.9991 27.634 22.8095 27.7138C22.8749 27.162 22.8778 26.7265 22.7167 26.2001C22.4862 25.4492 21.8876 25.0283 21.0634 25.0507C19.1864 25.1054 17.5985 26.5038 16.5956 27.6679C15.9276 28.4492 14.4472 29.0449 13.1474 29.5673C12.6337 29.7851 12.1454 29.9804 11.7382 30.1757C11.0888 29.6269 10.2636 29.0732 9.39444 28.4882C6.95303 26.8495 4.18643 24.9911 4.09072 22.4716C3.95401 18.7499 8.19229 16.1103 11.8915 14.2265C14.6952 12.8007 17.1327 11.8554 19.3437 11.3388C22.4491 10.6132 25.0722 10.7597 27.1386 11.7724C28.2694 12.3261 28.7987 13.5302 28.4628 14.7685C27.5839 17.9863 23.9423 20.1913 20.828 21.1835C18.9521 21.7812 17.3554 22.0312 15.9452 21.9492C14.1776 21.8466 12.7343 20.9599 12.1171 20.582C12.0182 20.5144 11.9137 20.4556 11.8046 20.4062L11.7763 20.3994C11.7204 20.3854 11.6617 20.3872 11.6068 20.4044C11.5518 20.4217 11.5027 20.4537 11.4647 20.497C11.3378 20.6484 11.3827 20.8876 11.4286 21.0087C12.0292 22.5781 13.2694 23.5693 15.1142 23.955C15.7179 24.0759 16.3324 24.1345 16.9481 24.1298C21.2655 24.1298 26.7743 21.6406 28.7978 19.5908C30.1776 18.1943 31.1825 16.7587 31.5985 14.2831C32.0331 11.6904 30.2753 9.88861 28.4843 9.05853C24.1317 7.04974 19.1884 7.84369 15.8075 8.86322C11.8524 10.0556 7.76065 12.2236 4.58291 14.8134C0.664944 18.0038 -0.751072 20.9658 0.371975 23.6269C1.5253 26.3544 4.3378 28.0605 7.05752 29.7109C7.93643 30.2431 8.77237 30.7499 9.5253 31.2734C9.29873 31.3837 9.06729 31.496 8.83194 31.6083C6.54873 32.7148 3.95889 33.9599 2.52237 36.0175C1.4794 37.5165 1.28408 39.0087 1.94229 40.4531C2.29385 41.2216 2.91885 41.7431 3.78701 42.0029C4.23863 42.1308 4.70633 42.193 5.17569 42.1874C6.86612 42.1874 8.72647 41.5038 9.73916 40.872C11.5282 39.749 12.6874 38.2412 13.1855 36.3906C13.6288 34.7441 13.5224 33.1083 12.8778 31.6484L15.0702 30.5429C14.0126 34.0585 14.8231 36.1581 15.7138 37.3163C16.0419 37.7431 16.6337 37.9999 17.2948 38.0117C17.956 38.0234 18.5644 37.7744 18.9081 37.3505C19.5585 36.5449 20.039 35.6025 20.4813 34.6601C20.4579 35.2753 20.4872 35.8984 20.6972 36.4267C20.8856 36.9023 21.1962 37.2177 21.5966 37.3388C22.0224 37.4687 22.5214 37.3593 23.0019 37.0312C25.1669 35.5497 26.6474 31.9941 27.8368 29.1357C28.0058 28.7294 28.1679 28.3388 28.3251 27.9736C28.6194 29.0267 29.0287 30.0442 29.5458 31.0077C29.661 31.2167 29.6513 31.3085 29.495 31.4804C29.2597 31.7382 28.9315 32.0497 28.5839 32.3798C27.5312 33.3788 26.2206 34.6259 26.0448 35.7226C25.9765 36.162 26.2792 36.5624 26.7489 36.6533C28.162 36.9345 29.8642 36.5234 31.3036 35.5546C32.6122 34.6757 33.1044 33.4501 32.7685 31.9228C32.4433 30.4521 33.1855 28.6259 34.9745 26.4911C35.2675 27.7148 35.6581 28.704 36.1972 29.5702L36.1825 29.582C34.8798 30.7197 33.0946 32.2773 33.372 34.1669C33.3952 34.3466 33.4557 34.5195 33.5495 34.6746C33.6434 34.8296 33.7685 34.9634 33.9169 35.0673C34.0755 35.1744 34.2545 35.2476 34.4428 35.2822C34.631 35.3168 34.8243 35.3121 35.0106 35.2685C36.7167 34.9101 38.0009 34.1884 38.9345 33.0644C39.8681 31.9404 39.5272 30.6943 39.2128 29.7275C41.6542 29.0654 43.828 29.082 45.8632 29.7763C47.0058 30.1669 47.8251 30.8085 48.2978 31.6943C48.8925 32.8085 48.5712 33.8369 47.3905 34.5898C47.0282 34.8212 46.8534 34.9628 46.8427 35.1415C46.8403 35.183 46.8479 35.2245 46.8649 35.2624C46.8819 35.3003 46.9078 35.3335 46.9403 35.3593C47.0771 35.4716 47.4989 35.6669 48.453 35.0663C49.3319 34.5146 49.8476 33.7636 49.9794 32.8203C50.0059 32.5602 50.0056 32.298 49.9784 32.038ZM10.9423 34.4853L10.9325 34.6103C10.7802 36.04 10.0536 37.2861 8.76944 38.3212C7.9628 38.9716 7.08682 39.371 6.30362 39.4472C5.75674 39.4999 5.35928 39.4257 5.12295 39.2255C4.94619 39.0761 4.85147 38.8525 4.82998 38.5419C4.66983 36.0537 8.57217 33.581 10.7685 32.7675C10.9252 33.3258 10.984 33.907 10.9423 34.4853ZM20.9374 27.4677C20.5761 29.5273 19.5224 33.415 17.8661 34.9238C17.787 34.996 17.7206 35.0214 17.6903 35.0146C17.6601 35.0078 17.6366 34.9716 17.6122 34.9169C17.0595 33.6357 17.2636 31.4716 18.1005 29.7714C18.744 28.4609 19.663 27.5927 20.6903 27.33C20.733 27.3183 20.777 27.312 20.8212 27.3115C20.8558 27.309 20.8902 27.3183 20.9188 27.3378C20.9309 27.3569 20.9388 27.3784 20.942 27.4008C20.9452 27.4232 20.9437 27.446 20.9374 27.4677ZM29.0907 34.9755C28.7792 35.3007 28.3524 35.2568 28.453 35.1376L30.039 33.454C29.911 34.0331 29.5331 34.5126 29.0907 34.9755ZM35.6698 33.5195C35.519 33.5938 35.3558 33.6398 35.1884 33.6552C35.1435 32.7695 36.0019 31.7724 36.8485 31.1074C37.0761 32.0312 36.6103 33.0078 35.6698 33.5195Z" fill="url(#paint0_linear_110_20)"/>
</g>
<defs>
<linearGradient id="paint0_linear_110_20" x1="0.393168" y1="27.5559" x2="52.5362" y2="27.6071" gradientUnits="userSpaceOnUse">
<stop stop-color="#4AB6E4"/>
<stop offset="1" stop-color="#1141BD"/>
</linearGradient>
<clipPath id="clip0_110_20">
<rect width="50" height="50" fill="white"/>
</clipPath>
</defs>
</svg>
