<svg width="50" height="50" viewBox="0 0 50 50" fill="none" xmlns="http://www.w3.org/2000/svg">
<path d="M25.0003 10C18.777 10 14.8903 13.3333 13.3337 20C15.667 16.6667 18.3903 15.4167 21.5003 16.25C23.277 16.7267 24.5437 18.1067 25.947 19.6333C28.237 22.12 30.8837 25 36.667 25C42.8903 25 46.777 21.6667 48.3337 15C46.0003 18.3333 43.277 19.5833 40.167 18.75C38.3903 18.2733 37.1237 16.8933 35.7203 15.3667C33.4303 12.88 30.7837 10 25.0003 10ZM13.3337 25C7.11032 25 3.22366 28.3333 1.66699 35C4.00033 31.6667 6.72366 30.4167 9.83366 31.25C11.6103 31.7267 12.877 33.1067 14.2803 34.6333C16.5703 37.12 19.217 40 25.0003 40C31.2237 40 35.1103 36.6667 36.667 30C34.3337 33.3333 31.6103 34.5833 28.5003 33.75C26.7237 33.2733 25.457 31.8933 24.0537 30.3667C21.7637 27.88 19.117 25 13.3337 25Z" stroke="url(#paint0_linear_110_14)" stroke-width="3" stroke-linejoin="round"/>
<defs>
<linearGradient id="paint0_linear_110_14" x1="2.03486" y1="27.2298" x2="50.7017" y2="27.2808" gradientUnits="userSpaceOnUse">
<stop stop-color="#4AB6E4"/>
<stop offset="1" stop-color="#1141BD"/>
</linearGradient>
</defs>
</svg>
