<svg width="50" height="50" viewBox="0 0 50 50" fill="none" xmlns="http://www.w3.org/2000/svg">
<path d="M31.25 36.4583C31.9167 37.125 32.8208 37.5 33.7646 37.5H34.8958C36.3333 37.5 37.5 36.3333 37.5 34.8958V34.375C37.5 33.5462 37.1708 32.7513 36.5847 32.1653C35.9987 31.5792 35.2038 31.25 34.375 31.25C33.5462 31.25 32.7513 30.9208 32.1653 30.3347C31.5792 29.7487 31.25 28.9538 31.25 28.125V27.6042C31.25 26.1667 32.4167 25 33.8542 25H34.9854C35.9292 25 36.8333 25.375 37.5 26.0417M18.75 25H27.0833M22.9167 25V37.5" stroke="url(#paint0_linear_110_5)" stroke-width="3" stroke-linecap="round" stroke-linejoin="round"/>
<path d="M43.75 39.5833V10.4167C43.75 9.3116 43.311 8.25179 42.5296 7.47039C41.7482 6.68899 40.6884 6.25 39.5833 6.25H10.4167C9.3116 6.25 8.25179 6.68899 7.47039 7.47039C6.68899 8.25179 6.25 9.3116 6.25 10.4167V39.5833C6.25 40.6884 6.68899 41.7482 7.47039 42.5296C8.25179 43.311 9.3116 43.75 10.4167 43.75H39.5833C40.6884 43.75 41.7482 43.311 42.5296 42.5296C43.311 41.7482 43.75 40.6884 43.75 39.5833Z" stroke="url(#paint1_linear_110_5)" stroke-width="3" stroke-linecap="round" stroke-linejoin="round"/>
<defs>
<linearGradient id="paint0_linear_110_5" x1="18.8978" y1="32.1791" x2="38.4514" y2="32.1989" gradientUnits="userSpaceOnUse">
<stop stop-color="#4AB6E4"/>
<stop offset="1" stop-color="#1141BD"/>
</linearGradient>
<linearGradient id="paint1_linear_110_5" x1="6.54561" y1="27.7872" x2="45.6529" y2="27.8136" gradientUnits="userSpaceOnUse">
<stop stop-color="#4AB6E4"/>
<stop offset="1" stop-color="#1141BD"/>
</linearGradient>
</defs>
</svg>
